<?xml version="1.0" encoding="UTF-8"?>
<svg id="Lag_1" xmlns="http://www.w3.org/2000/svg" version="1.1" viewBox="0 0 1280 720">
  <!-- Generator: Adobe Illustrator 30.0.0, SVG Export Plug-In . SVG Version: 2.1.1 Build 123)  -->
  <defs>
    <style>
      .st0 {
        fill: #fff;
      }
    </style>
  </defs>
  <path id="ANSTRØG" class="st0" d="M158,563l-13.4-90.2h-70l-13.3,90.2H18.9L91,125.4h37l72.4,437.6h-42.4ZM109.5,236l-24.1,163.8h48.4l-24.3-163.8ZM375.7,125.4v437.6h-39.8l-77.7-287.9v287.9h-39.9V125.4h39.9l77.8,288.5V125.4h39.7ZM510.7,448.2c0-17.07-2.67-30.1-8-39.1-5.33-9.2-14.9-18.8-28.7-28.8-13.87-10.27-24.83-20.3-32.9-30.1-22-26.87-33-63.03-33-108.5,0-23.6,2.93-44.63,8.8-63.1,5.93-18.6,14.4-33.13,25.4-43.6,11.07-10.4,23.47-15.6,37.2-15.6s26.2,5.7,37,17.1c10.8,11.27,19.17,27.2,25.1,47.8,6.07,20.67,9.1,44.1,9.1,70.3h-39.9c0-20-2.8-35.5-8.4-46.5-5.6-11.27-13.43-16.9-23.5-16.9-9.73,0-17.33,4.73-22.8,14.2-5.4,9.2-8.1,21.4-8.1,36.6,0,14.27,3.17,26.2,9.5,35.8,6.33,9.6,15.67,18.6,28,27,22.73,15.47,39.27,34.6,49.6,57.4,10.4,22.87,15.6,51.33,15.6,85.4,0,37.87-6.33,67.6-19,89.2-12.73,21.47-29.8,32.2-51.2,32.2-14.93,0-28.5-6.1-40.7-18.3-12.27-12.47-21.63-29.4-28.1-50.8-6.33-21.47-9.5-46.33-9.5-74.6h40c0,48.33,12.77,72.5,38.3,72.5,9.47,0,16.87-4.3,22.2-12.9,5.33-8.87,8-21.1,8-36.7h0ZM724,125.4v73h-59.3v364.6h-39.9V198.4h-58.5v-73h157.7ZM854.2,563l-36.2-160.2h-31.8v160.2h-39.9V125.4h71.9c22.87,0,40.5,11.53,52.9,34.6,12.4,23,18.6,55.57,18.6,97.7,0,29.8-2.87,54.73-8.6,74.8-5.67,19.8-14.3,35.63-25.9,47.5l41.9,178.8v4.2h-42.9ZM786.1,198.4v131.4h32.2c10,0,17.73-5.73,23.2-17.2,5.53-11.6,8.3-27.5,8.3-47.7s-2.63-36.9-7.9-48.7c-5.13-11.87-13.07-17.8-23.8-17.8h-32ZM1080.2,336.4v17.7c0,43.07-3.37,80.83-10.1,113.3s-16.4,57.53-29,75.2c-12.47,17.6-26.83,26.4-43.1,26.4-14.53,0-27.6-7-39.2-21l-11.3,43.5h-25l19-72.7c-17.47-39.07-26.2-94.67-26.2-166.8v-17.1c0-43.07,3.43-80.93,10.3-113.6,6.87-32.87,16.57-58,29.1-75.4,12.6-17.67,26.97-26.5,43.1-26.5s29.37,8.23,41.7,24.7l9.8-37.3h24.9l-17.8,68.2c15.87,39.67,23.8,93.47,23.8,161.4h0ZM955.7,332.8v21.3c0,34.47,2.2,63.03,6.6,85.7l59.4-227.5c-6.47-12.27-14.43-18.4-23.9-18.4-13.4,0-23.73,11.83-31,35.5-7.27,23.47-10.97,57.93-11.1,103.4ZM1039.9,355.6v-21.3c0-30.27-1.7-55.9-5.1-76.9l-58.5,223.5c6.27,9.47,13.5,14.2,21.7,14.2,13.4,0,23.7-11.83,30.9-35.5,7.27-23.87,10.93-58.53,11-104h0ZM1261.4,333.1v174.6c-7.2,19.4-17.33,34.53-30.4,45.4-13.13,10.6-27.67,15.9-43.6,15.9-16.8,0-31.53-8.2-44.2-24.6-12.6-16.67-22.33-40.73-29.2-72.2-6.87-31.47-10.37-68.43-10.5-110.9v-29.7c0-43.67,3.23-81.43,9.7-113.3,6.53-32.07,15.9-56.5,28.1-73.3,12.33-17.07,26.77-25.6,43.3-25.6,22.93,0,40.87,12.43,53.8,37.3,12.93,24.6,20.6,60.57,23,107.9h-38.8c-1.8-25.07-5.77-43.4-11.9-55-6-11.67-14.3-17.5-24.9-17.5-13.6,0-23.93,11.53-31,34.6-7.13,23.07-10.73,57.33-10.8,102.8v27.9c0,45.87,3.87,80.53,11.6,104,7.67,23.47,18.97,35.2,33.9,35.2s25.6-7.23,32-21.7v-75.4h-36.3v-66.4h76.2Z"/>
</svg>