<svg version="1.2" xmlns="http://www.w3.org/2000/svg" viewBox="0 0 1280 720" width="1280" height="720">
	<style>
		.s0 { fill: #1e1e1e } 
	</style>
	<path id="ANSTRØG" class="s0" aria-label="ANSTRØG"  d="m158 563l-13.4-90.2h-70l-13.3 90.2h-42.4l72.1-437.6h37l72.4 437.6zm-48.5-327l-24.1 163.8h48.4zm266.2-110.6v437.6h-39.8l-77.7-287.9v287.9h-39.9v-437.6h39.9l77.8 288.5v-288.5zm135 322.8q0-25.6-8-39.1-8-13.8-28.7-28.8-20.8-15.4-32.9-30.1-33-40.3-33-108.5 0-35.4 8.8-63.1 8.9-27.9 25.4-43.6 16.6-15.6 37.2-15.6 20.8 0 37 17.1 16.2 16.9 25.1 47.8 9.1 31 9.1 70.3h-39.9q0-30-8.4-46.5-8.4-16.9-23.5-16.9-14.6 0-22.8 14.2-8.1 13.8-8.1 36.6 0 21.4 9.5 35.8 9.5 14.4 28 27 34.1 23.2 49.6 57.4 15.6 34.3 15.6 85.4 0 56.8-19 89.2-19.1 32.2-51.2 32.2-22.4 0-40.7-18.3-18.4-18.7-28.1-50.8-9.5-32.2-9.5-74.6h40q0 72.5 38.3 72.5 14.2 0 22.2-12.9 8-13.3 8-36.7zm213.3-322.8v73h-59.3v364.6h-39.9v-364.6h-58.5v-73zm130.2 437.6l-36.2-160.2h-31.8v160.2h-39.9v-437.6h71.9q34.3 0 52.9 34.6 18.6 34.5 18.6 97.7 0 44.7-8.6 74.8-8.5 29.7-25.9 47.5l41.9 178.8v4.2zm-68.1-364.6v131.4h32.2q15 0 23.2-17.2 8.3-17.4 8.3-47.7 0-31-7.9-48.7-7.7-17.8-23.8-17.8zm294.1 138v17.7q0 64.6-10.1 113.3-10.1 48.7-29 75.2-18.7 26.4-43.1 26.4-21.8 0-39.2-21l-11.3 43.5h-25l19-72.7q-26.2-58.6-26.2-166.8v-17.1q0-64.6 10.3-113.6 10.3-49.3 29.1-75.4 18.9-26.5 43.1-26.5 23.2 0 41.7 24.7l9.8-37.3h24.9l-17.8 68.2q23.8 59.5 23.8 161.4zm-124.5-3.6v21.3q0 51.7 6.6 85.7l59.4-227.5q-9.7-18.4-23.9-18.4-20.1 0-31 35.5-10.9 35.2-11.1 103.4zm84.2 22.8v-21.3q0-45.4-5.1-76.9l-58.5 223.5q9.4 14.2 21.7 14.2 20.1 0 30.9-35.5 10.9-35.8 11-104zm221.5-22.5v174.6q-10.8 29.1-30.4 45.4-19.7 15.9-43.6 15.9-25.2 0-44.2-24.6-18.9-25-29.2-72.2-10.3-47.2-10.5-110.9v-29.7q0-65.5 9.7-113.3 9.8-48.1 28.1-73.3 18.5-25.6 43.3-25.6 34.4 0 53.8 37.3 19.4 36.9 23 107.9h-38.8q-2.7-37.6-11.9-55-9-17.5-24.9-17.5-20.4 0-31 34.6-10.7 34.6-10.8 102.8v27.9q0 68.8 11.6 104 11.5 35.2 33.9 35.2 22.4 0 32-21.7v-75.4h-36.3v-66.4z"/>
</svg>